<?xml version="1.0" encoding="utf-8"?>
<!-- Generator: Adobe Illustrator 22.1.0, SVG Export Plug-In . SVG Version: 6.00 Build 0)  -->
<svg version="1.2" baseProfile="tiny" id="Binance_Logo"
	 xmlns="http://www.w3.org/2000/svg" xmlns:xlink="http://www.w3.org/1999/xlink" x="0px" y="0px" viewBox="0 0 5000 5000"
	 xml:space="preserve">
<!-- <rect id="BG_Remove_it" fill="#FFFFFF" width="5000" height="5000"/> -->
<g>
	<g id="Triangles_1_">
		<polygon points="2994.5,2810 2994.5,2810.1 2500,3304.5 2005.7,2810.2 2005.4,2810 2187.5,2628.4 2187.5,2628.4 2500,2940.9 
			2812.6,2628.2 		"/>
		<polygon points="2994.5,2189.9 2812.6,2371.8 2500,2059.1 2187.5,2371.6 2005.7,2189.8 2500,1695.5 		"/>
	</g>
	<g id="Rectangles_1_">
		
			<rect x="2994.1" y="2371.5" transform="matrix(0.7071 -0.7071 0.7071 0.7071 -853.1851 2940.4219)" width="257.2" height="257.1"/>
		
			<rect x="1748.7" y="2371.4" transform="matrix(0.7071 -0.7071 0.7071 0.7071 -1217.9019 2059.6604)" width="257.2" height="257.1"/>
		<path d="M2684.4,2499.9L2684.4,2499.9L2500,2315.4l-136.4,136.4h0l-15.7,15.7l-32.3,32.3l-0.3,0.2l0.3,0.3l184.3,184.3
			l184.5-184.5l0.1-0.1L2684.4,2499.9"/>
	</g>
	<path d="M2500,3553c-142.1,0-280-27.8-409.9-82.8c-125.4-53-238-129-334.7-225.7c-96.7-96.7-172.6-209.3-225.7-334.7
		c-54.9-129.8-82.8-267.7-82.8-409.9c0-142.1,27.8-280,82.8-409.9c53-125.4,129-238,225.7-334.7c96.7-96.7,209.3-172.6,334.7-225.7
		c129.8-54.9,267.7-82.8,409.9-82.8c142.1,0,280,27.8,409.9,82.8c125.4,53,238,129,334.7,225.7c96.7,96.7,172.6,209.3,225.7,334.7
		c54.9,129.8,82.8,267.7,82.8,409.9c0,142.1-27.8,280-82.8,409.9c-53,125.4-129,238-225.7,334.7c-96.7,96.7-209.3,172.6-334.7,225.7
		C2780,3525.2,2642.1,3553,2500,3553z M2500,1507c-547.5,0-993,445.5-993,993s445.5,993,993,993s993-445.5,993-993
		S3047.5,1507,2500,1507z"/>
</g>
</svg>
